<svg width="150" height="40" viewBox="0 0 150 40" fill="none" xmlns="http://www.w3.org/2000/svg">
  <rect width="40" height="40" rx="8" fill="#4F46E5"/>
  <path d="M15 10H25V14H22V26H18V14H15V10Z" fill="white"/>
  <path d="M45 28V12H49V15C49.6667 13.6667 51 12.5 53 12.5C55.6667 12.5 57 14.1667 57 17.5V28H53V18.5C53 17.1667 52.3333 16.5 51 16.5C49.6667 16.5 49 17.1667 49 18.5V28H45Z" fill="#1F2937"/>
  <path d="M60 28V8H64V15C64.6667 13.3333 66.3333 12.5 69 12.5C71.6667 12.5 73.6667 13.5 75 15.5C76.3333 13.5 78.3333 12.5 81 12.5C84.3333 12.5 86 14.5 86 18.5V28H82V19.5C82 17.5 81.1667 16.5 79.5 16.5C77.8333 16.5 77 17.5 77 19.5V28H73V19.5C73 17.5 72.1667 16.5 70.5 16.5C68.8333 16.5 68 17.5 68 19.5V28H64V18.5C64 14.5 65.6667 12.5 69 12.5V16.5C67.6667 16.5 67 17.1667 67 18.5V28H60Z" fill="#1F2937"/>
  <path d="M89 28V12H93V15C93.6667 13.6667 95 12.5 97 12.5C99.6667 12.5 101 14.1667 101 17.5V28H97V18.5C97 17.1667 96.3333 16.5 95 16.5C93.6667 16.5 93 17.1667 93 18.5V28H89Z" fill="#1F2937"/>
  <path d="M104 28V8H108V15C108.667 13.3333 110.333 12.5 113 12.5C116.333 12.5 118 14.5 118 18.5V28H114V19.5C114 17.5 113.167 16.5 111.5 16.5C109.833 16.5 109 17.5 109 19.5V28H104Z" fill="#1F2937"/>
  <path d="M121 28V12H125V15C125.667 13.6667 127 12.5 129 12.5C131.667 12.5 133 14.1667 133 17.5V28H129V18.5C129 17.1667 128.333 16.5 127 16.5C125.667 16.5 125 17.1667 125 18.5V28H121Z" fill="#1F2937"/>
  <path d="M136 28V8H140V28H136Z" fill="#1F2937"/>
</svg> 